<svg width="184" height="30" viewBox="0 0 184 30" fill="none" xmlns="http://www.w3.org/2000/svg">
<path d="M2.448 8.712H6.516V16.2H6.876L13.788 8.712H18.936L10.584 17.496L19.116 27H13.932L6.876 18.828H6.516V27H2.448V8.712ZM27.0352 27.648C25.0912 27.648 23.3632 27.24 21.8512 26.424C20.3392 25.608 19.1632 24.456 18.3232 22.968C17.4832 21.48 17.0632 19.776 17.0632 17.856C17.0632 15.936 17.4832 14.232 18.3232 12.744C19.1632 11.256 20.3272 10.104 21.8152 9.288C23.3272 8.448 25.0672 8.028 27.0352 8.028C28.9792 8.028 30.7072 8.448 32.2192 9.288C33.7312 10.104 34.9072 11.256 35.7472 12.744C36.5872 14.232 37.0072 15.936 37.0072 17.856C37.0072 19.776 36.5872 21.48 35.7472 22.968C34.9072 24.456 33.7312 25.608 32.2192 26.424C30.7072 27.24 28.9792 27.648 27.0352 27.648ZM27.0352 24.084C28.1632 24.084 29.1712 23.82 30.0592 23.292C30.9712 22.764 31.6792 22.032 32.1832 21.096C32.6872 20.136 32.9392 19.056 32.9392 17.856C32.9392 16.656 32.6872 15.588 32.1832 14.652C31.6792 13.692 30.9712 12.948 30.0592 12.42C29.1712 11.868 28.1632 11.592 27.0352 11.592C25.9072 11.592 24.8872 11.868 23.9752 12.42C23.0872 12.948 22.3912 13.692 21.8872 14.652C21.3832 15.588 21.1312 16.656 21.1312 17.856C21.1312 19.056 21.3832 20.136 21.8872 21.096C22.3912 22.032 23.0872 22.764 23.9752 23.292C24.8872 23.82 25.9072 24.084 27.0352 24.084ZM38.4345 8.712H42.4305V11.232H42.7905C43.3185 10.248 44.0385 9.468 44.9505 8.892C45.8865 8.316 46.9305 8.028 48.0825 8.028C49.3065 8.028 50.4465 8.352 51.5025 9C52.5585 9.624 53.3385 10.452 53.8425 11.484H54.2025C54.8265 10.404 55.6545 9.564 56.6865 8.964C57.7185 8.364 58.8825 8.064 60.1785 8.064C61.5465 8.064 62.7825 8.4 63.8865 9.072C64.9905 9.744 65.8425 10.68 66.4425 11.88C67.0665 13.08 67.3785 14.436 67.3785 15.948V27H63.3105V16.308C63.3105 14.964 62.9145 13.848 62.1225 12.96C61.3545 12.072 60.3705 11.616 59.1705 11.592C57.9225 11.592 56.8905 12.036 56.0745 12.924C55.2825 13.812 54.8865 14.94 54.8865 16.308V27H50.7825V16.308C50.7825 14.892 50.4105 13.752 49.6665 12.888C48.9465 12.024 47.9745 11.592 46.7505 11.592C45.4785 11.592 44.4585 12.024 43.6905 12.888C42.9225 13.752 42.5385 14.892 42.5385 16.308V27H38.4345V8.712ZM69.4193 8.712H73.4873V11.16H73.8473C74.5193 10.152 75.3233 9.396 76.2593 8.892C77.1953 8.364 78.2273 8.1 79.3553 8.1C80.7953 8.1 82.0673 8.436 83.1713 9.108C84.2993 9.78 85.1633 10.704 85.7633 11.88C86.3873 13.056 86.6993 14.4 86.6993 15.912V27H82.5953V16.236C82.5953 14.868 82.2113 13.764 81.4433 12.924C80.6993 12.084 79.6793 11.664 78.3833 11.664C77.4953 11.664 76.6793 11.88 75.9353 12.312C75.1913 12.72 74.5913 13.296 74.1353 14.04C73.7033 14.76 73.4873 15.576 73.4873 16.488V27H69.4193V8.712ZM93.9153 27.504C91.9473 27.504 90.3633 27.036 89.1633 26.1C87.9873 25.14 87.3993 23.856 87.3993 22.248C87.3993 20.568 88.1073 19.188 89.5233 18.108C90.9633 17.004 93.0513 16.296 95.7873 15.984L100.323 15.48V14.76C100.323 13.68 99.9633 12.828 99.2433 12.204C98.5233 11.58 97.5153 11.268 96.2193 11.268C95.0193 11.268 94.0593 11.556 93.3393 12.132C92.6193 12.708 92.2713 13.5 92.2953 14.508H88.2633C88.2633 12.54 88.9833 10.968 90.4233 9.792C91.8873 8.616 93.8313 8.028 96.2553 8.028C98.7513 8.028 100.731 8.652 102.195 9.9C103.659 11.124 104.391 12.78 104.391 14.868V27H100.323V24.516H99.9993C98.7273 26.508 96.6993 27.504 93.9153 27.504ZM94.9233 24.516C96.5073 24.516 97.8033 24.084 98.8113 23.22C99.8193 22.332 100.323 21.204 100.323 19.836V18.396L95.8593 18.9C94.3473 19.068 93.2193 19.44 92.4753 20.016C91.7553 20.568 91.3953 21.24 91.3953 22.032C91.3953 22.8 91.7073 23.412 92.3313 23.868C92.9553 24.3 93.8193 24.516 94.9233 24.516ZM113.482 27.648C111.802 27.648 110.458 27.12 109.45 26.064C108.466 24.984 107.974 23.556 107.974 21.78V11.772H105.202V8.712H108.046L108.91 2.808H112.078L112.042 8.712H116.506V11.772H112.042V21.6C112.042 22.416 112.282 23.088 112.762 23.616C113.242 24.12 113.89 24.372 114.706 24.372C115.354 24.372 116.026 24.276 116.722 24.084V27.144C116.266 27.312 115.738 27.432 115.138 27.504C114.538 27.6 113.986 27.648 113.482 27.648ZM123.504 27.504C121.536 27.504 119.952 27.036 118.752 26.1C117.576 25.14 116.988 23.856 116.988 22.248C116.988 20.568 117.696 19.188 119.112 18.108C120.552 17.004 122.64 16.296 125.376 15.984L129.912 15.48V14.76C129.912 13.68 129.552 12.828 128.832 12.204C128.112 11.58 127.104 11.268 125.808 11.268C124.608 11.268 123.648 11.556 122.928 12.132C122.208 12.708 121.86 13.5 121.884 14.508H117.852C117.852 12.54 118.572 10.968 120.012 9.792C121.476 8.616 123.42 8.028 125.844 8.028C128.34 8.028 130.32 8.652 131.784 9.9C133.248 11.124 133.98 12.78 133.98 14.868V27H129.912V24.516H129.588C128.316 26.508 126.288 27.504 123.504 27.504ZM124.512 24.516C126.096 24.516 127.392 24.084 128.4 23.22C129.408 22.332 129.912 21.204 129.912 19.836V18.396L125.448 18.9C123.936 19.068 122.808 19.44 122.064 20.016C121.344 20.568 120.984 21.24 120.984 22.032C120.984 22.8 121.296 23.412 121.92 23.868C122.544 24.3 123.408 24.516 124.512 24.516Z" fill="white"/>
<path d="M144.756 15.216C144.132 15.216 143.576 15.08 143.088 14.808C142.6 14.528 142.216 14.14 141.936 13.644C141.664 13.148 141.528 12.584 141.528 11.952C141.528 11.32 141.664 10.756 141.936 10.26C142.216 9.756 142.6 9.368 143.088 9.096C143.576 8.816 144.132 8.676 144.756 8.676C145.276 8.676 145.752 8.776 146.184 8.976C146.624 9.168 146.984 9.44 147.264 9.792C147.552 10.136 147.732 10.532 147.804 10.98L146.508 11.148C146.412 10.764 146.2 10.452 145.872 10.212C145.552 9.972 145.184 9.852 144.768 9.852C144.416 9.852 144.096 9.944 143.808 10.128C143.52 10.304 143.292 10.552 143.124 10.872C142.964 11.184 142.884 11.544 142.884 11.952C142.884 12.36 142.964 12.724 143.124 13.044C143.292 13.356 143.516 13.604 143.796 13.788C144.084 13.964 144.408 14.052 144.768 14.052C145.184 14.052 145.552 13.932 145.872 13.692C146.192 13.452 146.408 13.14 146.52 12.756L147.816 12.924C147.736 13.372 147.548 13.772 147.252 14.124C146.964 14.468 146.6 14.736 146.16 14.928C145.728 15.12 145.26 15.216 144.756 15.216ZM148.324 8.904H149.656V9.708H149.776C149.912 9.436 150.124 9.216 150.412 9.048C150.708 8.872 151.02 8.784 151.348 8.784C151.644 8.784 151.884 8.832 152.068 8.928V10.164C151.908 10.1 151.74 10.052 151.564 10.02C151.396 9.988 151.248 9.972 151.12 9.972C150.696 9.972 150.348 10.14 150.076 10.476C149.812 10.812 149.68 11.252 149.68 11.796V15H148.324V8.904ZM155.195 15.216C154.555 15.216 153.983 15.076 153.479 14.796C152.975 14.508 152.579 14.112 152.291 13.608C152.011 13.096 151.871 12.52 151.871 11.88C151.871 11.264 152.011 10.712 152.291 10.224C152.571 9.736 152.959 9.356 153.455 9.084C153.951 8.812 154.515 8.676 155.147 8.676C155.771 8.676 156.327 8.812 156.815 9.084C157.311 9.356 157.695 9.736 157.967 10.224C158.247 10.712 158.387 11.268 158.387 11.892C158.387 12.116 158.383 12.276 158.375 12.372H153.275C153.347 12.9 153.559 13.324 153.911 13.644C154.271 13.956 154.715 14.112 155.243 14.112C155.635 14.112 155.987 14.024 156.299 13.848C156.619 13.664 156.863 13.416 157.031 13.104L158.171 13.536C157.947 14.064 157.571 14.476 157.043 14.772C156.515 15.068 155.899 15.216 155.195 15.216ZM156.983 11.364C156.903 10.892 156.691 10.512 156.347 10.224C156.011 9.928 155.599 9.78 155.111 9.78C154.631 9.78 154.227 9.924 153.899 10.212C153.571 10.5 153.363 10.884 153.275 11.364H156.983ZM160.618 15.168C159.962 15.168 159.434 15.012 159.034 14.7C158.642 14.38 158.446 13.952 158.446 13.416C158.446 12.856 158.682 12.396 159.154 12.036C159.634 11.668 160.33 11.432 161.242 11.328L162.754 11.16V10.92C162.754 10.56 162.634 10.276 162.394 10.068C162.154 9.86 161.818 9.756 161.386 9.756C160.986 9.756 160.666 9.852 160.426 10.044C160.186 10.236 160.07 10.5 160.078 10.836H158.734C158.734 10.18 158.974 9.656 159.454 9.264C159.942 8.872 160.59 8.676 161.398 8.676C162.23 8.676 162.89 8.884 163.378 9.3C163.866 9.708 164.11 10.26 164.11 10.956V15H162.754V14.172H162.646C162.222 14.836 161.546 15.168 160.618 15.168ZM160.954 14.172C161.482 14.172 161.914 14.028 162.25 13.74C162.586 13.444 162.754 13.068 162.754 12.612V12.132L161.266 12.3C160.762 12.356 160.386 12.48 160.138 12.672C159.898 12.856 159.778 13.08 159.778 13.344C159.778 13.6 159.882 13.804 160.09 13.956C160.298 14.1 160.586 14.172 160.954 14.172ZM167.14 15.216C166.58 15.216 166.132 15.04 165.796 14.688C165.468 14.328 165.304 13.852 165.304 13.26V9.924H164.38V8.904H165.328L165.616 6.936H166.672L166.66 8.904H168.148V9.924H166.66V13.2C166.66 13.472 166.74 13.696 166.9 13.872C167.06 14.04 167.276 14.124 167.548 14.124C167.764 14.124 167.988 14.092 168.22 14.028V15.048C168.068 15.104 167.892 15.144 167.692 15.168C167.492 15.2 167.308 15.216 167.14 15.216ZM169.485 7.884C169.229 7.884 169.017 7.804 168.849 7.644C168.689 7.476 168.609 7.264 168.609 7.008C168.609 6.752 168.689 6.544 168.849 6.384C169.017 6.224 169.229 6.144 169.485 6.144C169.749 6.144 169.961 6.224 170.121 6.384C170.289 6.544 170.373 6.752 170.373 7.008C170.373 7.264 170.289 7.476 170.121 7.644C169.961 7.804 169.749 7.884 169.485 7.884ZM168.813 8.904H170.169V15H168.813V8.904ZM170.322 8.904H171.738L173.454 13.908H173.574L175.302 8.904H176.706L174.486 15H172.554L170.322 8.904ZM179.659 15.216C179.019 15.216 178.447 15.076 177.943 14.796C177.439 14.508 177.043 14.112 176.755 13.608C176.475 13.096 176.335 12.52 176.335 11.88C176.335 11.264 176.475 10.712 176.755 10.224C177.035 9.736 177.423 9.356 177.919 9.084C178.415 8.812 178.979 8.676 179.611 8.676C180.235 8.676 180.791 8.812 181.279 9.084C181.775 9.356 182.159 9.736 182.431 10.224C182.711 10.712 182.851 11.268 182.851 11.892C182.851 12.116 182.847 12.276 182.839 12.372H177.739C177.811 12.9 178.023 13.324 178.375 13.644C178.735 13.956 179.179 14.112 179.707 14.112C180.099 14.112 180.451 14.024 180.763 13.848C181.083 13.664 181.327 13.416 181.495 13.104L182.635 13.536C182.411 14.064 182.035 14.476 181.507 14.772C180.979 15.068 180.363 15.216 179.659 15.216ZM181.447 11.364C181.367 10.892 181.155 10.512 180.811 10.224C180.475 9.928 180.063 9.78 179.575 9.78C179.095 9.78 178.691 9.924 178.363 10.212C178.035 10.5 177.827 10.884 177.739 11.364H181.447ZM143.544 27.168C142.888 27.168 142.36 27.012 141.96 26.7C141.568 26.38 141.372 25.952 141.372 25.416C141.372 24.856 141.608 24.396 142.08 24.036C142.56 23.668 143.256 23.432 144.168 23.328L145.68 23.16V22.92C145.68 22.56 145.56 22.276 145.32 22.068C145.08 21.86 144.744 21.756 144.312 21.756C143.912 21.756 143.592 21.852 143.352 22.044C143.112 22.236 142.996 22.5 143.004 22.836H141.66C141.66 22.18 141.9 21.656 142.38 21.264C142.868 20.872 143.516 20.676 144.324 20.676C145.156 20.676 145.816 20.884 146.304 21.3C146.792 21.708 147.036 22.26 147.036 22.956V27H145.68V26.172H145.572C145.148 26.836 144.472 27.168 143.544 27.168ZM143.88 26.172C144.408 26.172 144.84 26.028 145.176 25.74C145.512 25.444 145.68 25.068 145.68 24.612V24.132L144.192 24.3C143.688 24.356 143.312 24.48 143.064 24.672C142.824 24.856 142.704 25.08 142.704 25.344C142.704 25.6 142.808 25.804 143.016 25.956C143.224 26.1 143.512 26.172 143.88 26.172ZM150.726 29.976C149.902 29.976 149.21 29.796 148.65 29.436C148.09 29.084 147.714 28.58 147.522 27.924L148.866 27.552C149.01 27.96 149.242 28.276 149.562 28.5C149.89 28.724 150.282 28.836 150.738 28.836C151.33 28.836 151.798 28.66 152.142 28.308C152.486 27.956 152.658 27.48 152.658 26.88V26.16H152.538C152.002 26.8 151.314 27.12 150.474 27.12C149.89 27.12 149.366 26.988 148.902 26.724C148.438 26.452 148.074 26.076 147.81 25.596C147.554 25.116 147.426 24.568 147.426 23.952C147.426 23.32 147.554 22.76 147.81 22.272C148.074 21.776 148.438 21.392 148.902 21.12C149.366 20.84 149.89 20.7 150.474 20.7C151.338 20.7 152.038 21.032 152.574 21.696H152.694V20.904H154.026V26.904C154.026 27.528 153.89 28.072 153.618 28.536C153.354 29 152.97 29.356 152.466 29.604C151.97 29.852 151.39 29.976 150.726 29.976ZM150.75 25.968C151.126 25.968 151.462 25.884 151.758 25.716C152.062 25.54 152.298 25.3 152.466 24.996C152.634 24.684 152.718 24.336 152.718 23.952C152.718 23.552 152.634 23.196 152.466 22.884C152.298 22.564 152.062 22.316 151.758 22.14C151.462 21.956 151.126 21.864 150.75 21.864C150.374 21.864 150.034 21.956 149.73 22.14C149.434 22.316 149.202 22.564 149.034 22.884C148.866 23.196 148.782 23.552 148.782 23.952C148.782 24.336 148.866 24.684 149.034 24.996C149.202 25.3 149.434 25.54 149.73 25.716C150.034 25.884 150.374 25.968 150.75 25.968ZM157.844 27.216C157.204 27.216 156.632 27.076 156.128 26.796C155.624 26.508 155.228 26.112 154.94 25.608C154.66 25.096 154.52 24.52 154.52 23.88C154.52 23.264 154.66 22.712 154.94 22.224C155.22 21.736 155.608 21.356 156.104 21.084C156.6 20.812 157.164 20.676 157.796 20.676C158.42 20.676 158.976 20.812 159.464 21.084C159.96 21.356 160.344 21.736 160.616 22.224C160.896 22.712 161.036 23.268 161.036 23.892C161.036 24.116 161.032 24.276 161.024 24.372H155.924C155.996 24.9 156.208 25.324 156.56 25.644C156.92 25.956 157.364 26.112 157.892 26.112C158.284 26.112 158.636 26.024 158.948 25.848C159.268 25.664 159.512 25.416 159.68 25.104L160.82 25.536C160.596 26.064 160.22 26.476 159.692 26.772C159.164 27.068 158.548 27.216 157.844 27.216ZM159.632 23.364C159.552 22.892 159.34 22.512 158.996 22.224C158.66 21.928 158.248 21.78 157.76 21.78C157.28 21.78 156.876 21.924 156.548 22.212C156.22 22.5 156.012 22.884 155.924 23.364H159.632ZM161.538 20.904H162.894V21.72H163.014C163.238 21.384 163.506 21.132 163.818 20.964C164.13 20.788 164.474 20.7 164.85 20.7C165.33 20.7 165.754 20.812 166.122 21.036C166.498 21.26 166.786 21.568 166.986 21.96C167.194 22.352 167.298 22.8 167.298 23.304V27H165.93V23.412C165.93 22.956 165.802 22.588 165.546 22.308C165.298 22.028 164.958 21.888 164.526 21.888C164.23 21.888 163.958 21.96 163.71 22.104C163.462 22.24 163.262 22.432 163.11 22.68C162.966 22.92 162.894 23.192 162.894 23.496V27H161.538V20.904ZM170.916 27.216C170.292 27.216 169.736 27.08 169.248 26.808C168.76 26.528 168.376 26.14 168.096 25.644C167.824 25.148 167.688 24.584 167.688 23.952C167.688 23.32 167.824 22.756 168.096 22.26C168.376 21.756 168.76 21.368 169.248 21.096C169.736 20.816 170.292 20.676 170.916 20.676C171.436 20.676 171.912 20.776 172.344 20.976C172.784 21.168 173.144 21.44 173.424 21.792C173.712 22.136 173.892 22.532 173.964 22.98L172.668 23.148C172.572 22.764 172.36 22.452 172.032 22.212C171.712 21.972 171.344 21.852 170.928 21.852C170.576 21.852 170.256 21.944 169.968 22.128C169.68 22.304 169.452 22.552 169.284 22.872C169.124 23.184 169.044 23.544 169.044 23.952C169.044 24.36 169.124 24.724 169.284 25.044C169.452 25.356 169.676 25.604 169.956 25.788C170.244 25.964 170.568 26.052 170.928 26.052C171.344 26.052 171.712 25.932 172.032 25.692C172.352 25.452 172.568 25.14 172.68 24.756L173.976 24.924C173.896 25.372 173.708 25.772 173.412 26.124C173.124 26.468 172.76 26.736 172.32 26.928C171.888 27.12 171.42 27.216 170.916 27.216ZM175.09 29.724C174.914 29.724 174.726 29.704 174.526 29.664C174.326 29.632 174.146 29.584 173.986 29.52L173.998 28.38C174.302 28.5 174.586 28.56 174.85 28.56C175.114 28.56 175.33 28.488 175.498 28.344C175.666 28.2 175.79 28.048 175.87 27.888C175.95 27.736 176.078 27.448 176.254 27.024L173.47 20.904H174.91L176.782 25.26H176.902L178.462 20.904H179.89L177.514 27.156C177.29 27.724 177.078 28.184 176.878 28.536C176.686 28.888 176.442 29.172 176.146 29.388C175.858 29.612 175.506 29.724 175.09 29.724Z" fill="white"/>
</svg>
