<svg width="89" height="89" viewBox="0 0 89 89" fill="none" xmlns="http://www.w3.org/2000/svg">
<rect opacity="0.12" width="88.5032" height="88.5032" rx="19" fill="#C4C4C4"/>
<path d="M27.8329 38.2319V38.2318V17.3164C27.8329 15.9357 28.9521 14.8164 30.3329 14.8164H58.1723C59.553 14.8164 60.6723 15.9357 60.6723 17.3164V37.7437V39.0452V39.3846L60.9877 39.5099L76.9293 45.8427C77.6045 46.1109 77.6031 47.0671 76.9271 47.3334L44.7615 60.0037C44.2662 60.1988 43.7153 60.1988 43.22 60.0037L11.0673 47.3385C10.3908 47.072 10.3903 46.115 11.0659 45.8475C11.0664 45.8474 11.0669 45.8472 11.0673 45.847L27.5124 39.5118L27.8326 39.3885L27.8326 39.0454L27.8329 38.2319Z" stroke="white"/>
<g clip-path="url(#clip0)">
<path d="M37.0829 29.9346H34.4908C34.1329 29.9346 33.8428 30.2247 33.8428 30.5826V33.218C33.8428 33.5759 34.1329 33.866 34.4908 33.866C34.8487 33.866 35.1389 33.5759 35.1389 33.218V31.2307H37.083C37.4409 31.2307 37.731 30.9405 37.731 30.5826C37.731 30.2247 37.4408 29.9346 37.0829 29.9346Z" fill="white"/>
<path d="M55.3134 29.9346H52.7213C52.3634 29.9346 52.0732 30.2247 52.0732 30.5826C52.0732 30.9405 52.3633 31.2307 52.7213 31.2307H54.6654V33.218C54.6654 33.5759 54.9555 33.866 55.3134 33.866C55.6713 33.866 55.9615 33.5759 55.9615 33.218V30.5826C55.9615 30.2247 55.6713 29.9346 55.3134 29.9346Z" fill="white"/>
<path d="M37.083 50.7584H35.1389V48.7711C35.1389 48.4132 34.8487 48.123 34.4908 48.123C34.1329 48.123 33.8428 48.4132 33.8428 48.7711V51.4064C33.8428 51.7643 34.1329 52.0545 34.4908 52.0545H37.083C37.4409 52.0545 37.731 51.7643 37.731 51.4064C37.731 51.0485 37.4409 50.7584 37.083 50.7584Z" fill="white"/>
<path d="M55.3134 48.123C54.9555 48.123 54.6654 48.4132 54.6654 48.7711V50.7584H52.7213C52.3634 50.7584 52.0732 51.0485 52.0732 51.4064C52.0732 51.7643 52.3634 52.0545 52.7213 52.0545H55.3134C55.6713 52.0545 55.9615 51.7643 55.9615 51.4064V48.7711C55.9615 48.4132 55.6713 48.123 55.3134 48.123Z" fill="white"/>
<path d="M54.2532 35.2509L45.2277 30.0219C45.0268 29.9055 44.7789 29.9055 44.578 30.0219L35.5489 35.2509C35.3498 35.3662 35.2256 35.581 35.2256 35.8112C35.2256 35.8125 35.2257 35.8138 35.2257 35.815V46.1832C35.2257 46.4157 35.352 46.6332 35.5554 46.7477L44.5781 51.9731C44.6752 52.0294 44.7909 52.0604 44.9029 52.0604C45.0199 52.0604 45.1342 52.0273 45.2278 51.9731L54.2468 46.7477C54.2483 46.7468 54.2498 46.746 54.2513 46.7451C54.4603 46.5943 54.573 46.4675 54.5761 46.1911C54.5762 46.1885 54.5764 46.1859 54.5764 46.1833V35.8151C54.5764 35.8138 54.5765 35.8125 54.5765 35.8113C54.5765 35.5808 54.4522 35.366 54.2532 35.2509ZM44.2549 50.288L37.1752 46.1862L42.6331 43.0562C42.9436 42.8781 43.051 42.4821 42.8729 42.1717C42.6949 41.8612 42.2989 41.7539 41.9884 41.9319L36.5217 45.0646V36.9314L44.2549 41.3725V50.288ZM44.9029 40.2501L37.1743 35.8093L44.9029 31.3315L52.6315 35.8093L44.9029 40.2501ZM53.2845 45.0646L47.8174 41.9319C47.507 41.7539 47.1109 41.8611 46.9329 42.1716C46.7548 42.4821 46.8622 42.8781 47.1727 43.0561L52.6306 46.1861L45.5509 50.2879V41.3725L53.2845 36.9314V45.0646H53.2845Z" fill="white"/>
</g>
<circle cx="44.2507" cy="71.5837" r="1.30152" fill="white"/>
<path d="M45.3677 59.682L45.3761 59.6789L45.3843 59.6756L60.6715 53.4542V73.789C60.6715 75.1697 59.5522 76.289 58.1715 76.289H30.332C28.9513 76.289 27.832 75.1697 27.832 73.789V53.6446L42.9434 59.6768L42.9501 59.6795L42.9568 59.682C43.732 59.9659 44.5925 59.9659 45.3677 59.682Z" stroke="white"/>
<defs>
<clipPath id="clip0">
<rect width="22.1258" height="22.1258" fill="white" transform="translate(33.8398 29.9346)"/>
</clipPath>
</defs>
</svg>
