<svg width="22" height="21" viewBox="0 0 22 21" fill="none" xmlns="http://www.w3.org/2000/svg">
<path d="M13.125 17.2969C15.0781 16.9323 16.3672 15.5 16.9922 13C17.3568 11.5156 17.487 10.2266 17.3828 9.13281H13.125V0.617188H21.4844V8.46875C21.4844 11.5677 20.8464 14.3411 19.5703 16.7891C18.2943 19.2109 16.1458 20.6042 13.125 20.9688V17.2969ZM0 17.2969C1.95312 16.9323 3.25521 15.5 3.90625 13C4.27083 11.5156 4.38802 10.2266 4.25781 9.13281H0V0.617188H8.32031V8.46875C8.32031 11.5677 7.68229 14.3281 6.40625 16.75C5.13021 19.1458 2.99479 20.5521 0 20.9688V17.2969Z" fill="#E7ECF0"/>
</svg>
