{
    "asset" : {
        "generator" : "Khronos glTF Blender I/O v1.2.75",
        "version" : "2.0"
    },
    "scene" : 0,
    "scenes" : [
        {
            "name" : "Scene",
            "nodes" : [
                1
            ]
        }
    ],
    "nodes" : [
        {
            "mesh" : 0,
            "name" : "a",
            "translation" : [
                -5.466866970062256,
                3.644578218460083,
                7.289156436920166
            ]
        },
        {
            "children" : [
                0
            ],
            "name" : "a.001",
            "rotation" : [
                0.7071067690849304,
                0,
                0,
                0.7071067690849304
            ],
            "scale" : [
                0.009999999776482582,
                0.009999999776482582,
                0.009999999776482582
            ]
        }
    ],
    "materials" : [
        {
            "doubleSided" : true,
            "emissiveFactor" : [
                0,
                0,
                0
            ],
            "name" : "Mat",
            "pbrMetallicRoughness" : {
                "baseColorFactor" : [
                    1,
                    1,
                    1,
                    1
                ],
                "metallicFactor" : 0,
                "roughnessFactor" : 0.4343145787715912
            }
        }
    ],
    "meshes" : [
        {
            "name" : "Mesh",
            "primitives" : [
                {
                    "attributes" : {
                        "POSITION" : 0,
                        "NORMAL" : 1,
                        "TEXCOORD_0" : 2
                    },
                    "indices" : 3,
                    "material" : 0
                }
            ]
        }
    ],
    "accessors" : [
        {
            "bufferView" : 0,
            "componentType" : 5126,
            "count" : 5714,
            "max" : [
                47.1863899230957,
                15.268759727478027,
                54.080467224121094
            ],
            "min" : [
                -47.1826171875,
                -15.2694673538208,
                -54.08342361450195
            ],
            "type" : "VEC3"
        },
        {
            "bufferView" : 1,
            "componentType" : 5126,
            "count" : 5714,
            "type" : "VEC3"
        },
        {
            "bufferView" : 2,
            "componentType" : 5126,
            "count" : 5714,
            "type" : "VEC2"
        },
        {
            "bufferView" : 3,
            "componentType" : 5123,
            "count" : 27000,
            "type" : "SCALAR"
        }
    ],
    "bufferViews" : [
        {
            "buffer" : 0,
            "byteLength" : 68568,
            "byteOffset" : 0
        },
        {
            "buffer" : 0,
            "byteLength" : 68568,
            "byteOffset" : 68568
        },
        {
            "buffer" : 0,
            "byteLength" : 45712,
            "byteOffset" : 137136
        },
        {
            "buffer" : 0,
            "byteLength" : 54000,
            "byteOffset" : 182848
        }
    ],
    "buffers" : [
        {
            "byteLength" : 236848,
            "uri" : "data:application/octet-stream;base64,"
        }
    ]
}
