{
    "asset" : {
        "generator" : "Khronos glTF Blender I/O v1.2.75",
        "version" : "2.0"
    },
    "scene" : 0,
    "scenes" : [
        {
            "name" : "Scene",
            "nodes" : [
                1
            ]
        }
    ],
    "nodes" : [
        {
            "mesh" : 0,
            "name" : "k_2",
            "translation" : [
                1.7534290552139282,
                -1.1689527034759521,
                -2.3379054069519043
            ]
        },
        {
            "children" : [
                0
            ],
            "name" : "k",
            "rotation" : [
                0.7071067690849304,
                0,
                0,
                0.7071067690849304
            ],
            "scale" : [
                0.009999998845160007,
                0.009999999776482582,
                0.009999999776482582
            ]
        }
    ],
    "materials" : [
        {
            "doubleSided" : true,
            "emissiveFactor" : [
                0,
                0,
                0
            ],
            "name" : "Mat.001",
            "pbrMetallicRoughness" : {
                "baseColorFactor" : [
                    1,
                    1,
                    1,
                    1
                ],
                "metallicFactor" : 0,
                "roughnessFactor" : 0.4343145787715912
            }
        }
    ],
    "meshes" : [
        {
            "name" : "Mesh.001",
            "primitives" : [
                {
                    "attributes" : {
                        "POSITION" : 0,
                        "NORMAL" : 1,
                        "TEXCOORD_0" : 2
                    },
                    "indices" : 3,
                    "material" : 0
                }
            ]
        }
    ],
    "accessors" : [
        {
            "bufferView" : 0,
            "componentType" : 5126,
            "count" : 4073,
            "max" : [
                45.65378952026367,
                15.269925117492676,
                50.79999923706055
            ],
            "min" : [
                -45.67190170288086,
                -15.269501686096191,
                -50.79999923706055
            ],
            "type" : "VEC3"
        },
        {
            "bufferView" : 1,
            "componentType" : 5126,
            "count" : 4073,
            "type" : "VEC3"
        },
        {
            "bufferView" : 2,
            "componentType" : 5126,
            "count" : 4073,
            "type" : "VEC2"
        },
        {
            "bufferView" : 3,
            "componentType" : 5123,
            "count" : 22206,
            "type" : "SCALAR"
        }
    ],
    "bufferViews" : [
        {
            "buffer" : 0,
            "byteLength" : 48876,
            "byteOffset" : 0
        },
        {
            "buffer" : 0,
            "byteLength" : 48876,
            "byteOffset" : 48876
        },
        {
            "buffer" : 0,
            "byteLength" : 32584,
            "byteOffset" : 97752
        },
        {
            "buffer" : 0,
            "byteLength" : 44412,
            "byteOffset" : 130336
        }
    ],
    "buffers" : [
        {
            "byteLength" : 174748,
            "uri" : "data:application/octet-stream;base64,"
        }
    ]
}
