{
    "asset" : {
        "generator" : "Khronos glTF Blender I/O v1.2.75",
        "version" : "2.0"
    },
    "scene" : 0,
    "scenes" : [
        {
            "name" : "Scene",
            "nodes" : [
                1
            ]
        }
    ],
    "nodes" : [
        {
            "mesh" : 0,
            "name" : "m_2",
            "translation" : [
                4.505649089813232,
                -3.0037660598754883,
                -6.007532119750977
            ]
        },
        {
            "children" : [
                0
            ],
            "name" : "m",
            "rotation" : [
                0.7071067690849304,
                0,
                0,
                0.7071067690849304
            ],
            "scale" : [
                0.009999999776482582,
                0.009999999776482582,
                0.009999999776482582
            ]
        }
    ],
    "materials" : [
        {
            "doubleSided" : true,
            "emissiveFactor" : [
                0,
                0,
                0
            ],
            "name" : "Mat.002",
            "pbrMetallicRoughness" : {
                "baseColorFactor" : [
                    1,
                    1,
                    1,
                    1
                ],
                "metallicFactor" : 0,
                "roughnessFactor" : 0.4343145787715912
            }
        }
    ],
    "meshes" : [
        {
            "name" : "Mesh.002",
            "primitives" : [
                {
                    "attributes" : {
                        "POSITION" : 0,
                        "NORMAL" : 1,
                        "TEXCOORD_0" : 2
                    },
                    "indices" : 3,
                    "material" : 0
                }
            ]
        }
    ],
    "accessors" : [
        {
            "bufferView" : 0,
            "componentType" : 5126,
            "count" : 5028,
            "max" : [
                80.39884948730469,
                15.269044876098633,
                52.68785095214844
            ],
            "min" : [
                -80.39978790283203,
                -15.269128799438477,
                -52.68474197387695
            ],
            "type" : "VEC3"
        },
        {
            "bufferView" : 1,
            "componentType" : 5126,
            "count" : 5028,
            "type" : "VEC3"
        },
        {
            "bufferView" : 2,
            "componentType" : 5126,
            "count" : 5028,
            "type" : "VEC2"
        },
        {
            "bufferView" : 3,
            "componentType" : 5123,
            "count" : 26997,
            "type" : "SCALAR"
        }
    ],
    "bufferViews" : [
        {
            "buffer" : 0,
            "byteLength" : 60336,
            "byteOffset" : 0
        },
        {
            "buffer" : 0,
            "byteLength" : 60336,
            "byteOffset" : 60336
        },
        {
            "buffer" : 0,
            "byteLength" : 40224,
            "byteOffset" : 120672
        },
        {
            "buffer" : 0,
            "byteLength" : 53994,
            "byteOffset" : 160896
        }
    ],
    "buffers" : [
        {
            "byteLength" : 214892,
            "uri" : "data:application/octet-stream;base64,"
        }
    ]
}
