{
    "asset" : {
        "generator" : "Khronos glTF Blender I/O v1.2.75",
        "version" : "2.0"
    },
    "scene" : 0,
    "scenes" : [
        {
            "name" : "Scene",
            "nodes" : [
                1
            ]
        }
    ],
    "nodes" : [
        {
            "mesh" : 0,
            "name" : "n_2",
            "translation" : [
                0.8864421844482422,
                -0.5909614562988281,
                -1.1819229125976562
            ]
        },
        {
            "children" : [
                0
            ],
            "name" : "n",
            "rotation" : [
                0.7071067690849304,
                0,
                0,
                0.7071067690849304
            ],
            "scale" : [
                0.009999999776482582,
                0.009999999776482582,
                0.009999999776482582
            ]
        }
    ],
    "materials" : [
        {
            "doubleSided" : true,
            "emissiveFactor" : [
                0,
                0,
                0
            ],
            "name" : "Mat.003",
            "pbrMetallicRoughness" : {
                "baseColorFactor" : [
                    1,
                    1,
                    1,
                    1
                ],
                "metallicFactor" : 0,
                "roughnessFactor" : 0.4343145787715912
            }
        }
    ],
    "meshes" : [
        {
            "name" : "Mesh.003",
            "primitives" : [
                {
                    "attributes" : {
                        "POSITION" : 0,
                        "NORMAL" : 1,
                        "TEXCOORD_0" : 2
                    },
                    "indices" : 3,
                    "material" : 0
                }
            ]
        }
    ],
    "accessors" : [
        {
            "bufferView" : 0,
            "componentType" : 5126,
            "count" : 3940,
            "max" : [
                47.99915313720703,
                15.268787384033203,
                52.489959716796875
            ],
            "min" : [
                -47.99970626831055,
                -15.269518852233887,
                -52.48444747924805
            ],
            "type" : "VEC3"
        },
        {
            "bufferView" : 1,
            "componentType" : 5126,
            "count" : 3940,
            "type" : "VEC3"
        },
        {
            "bufferView" : 2,
            "componentType" : 5126,
            "count" : 3940,
            "type" : "VEC2"
        },
        {
            "bufferView" : 3,
            "componentType" : 5123,
            "count" : 19506,
            "type" : "SCALAR"
        }
    ],
    "bufferViews" : [
        {
            "buffer" : 0,
            "byteLength" : 47280,
            "byteOffset" : 0
        },
        {
            "buffer" : 0,
            "byteLength" : 47280,
            "byteOffset" : 47280
        },
        {
            "buffer" : 0,
            "byteLength" : 31520,
            "byteOffset" : 94560
        },
        {
            "buffer" : 0,
            "byteLength" : 39012,
            "byteOffset" : 126080
        }
    ],
    "buffers" : [
        {
            "byteLength" : 165092,
            "uri" : "data:application/octet-stream;base64,"
        }
    ]
}
