{
    "asset" : {
        "generator" : "Khronos glTF Blender I/O v1.2.75",
        "version" : "2.0"
    },
    "scene" : 0,
    "scenes" : [
        {
            "name" : "Scene",
            "nodes" : [
                1
            ]
        }
    ],
    "nodes" : [
        {
            "mesh" : 0,
            "name" : "o_2",
            "translation" : [
                -5.7721662521362305,
                3.8481106758117676,
                7.696221351623535
            ]
        },
        {
            "children" : [
                0
            ],
            "name" : "o",
            "rotation" : [
                0.7071067690849304,
                0,
                0,
                0.7071067690849304
            ],
            "scale" : [
                0.009999999776482582,
                0.009999999776482582,
                0.009999999776482582
            ]
        }
    ],
    "materials" : [
        {
            "doubleSided" : true,
            "emissiveFactor" : [
                0,
                0,
                0
            ],
            "name" : "Mat.004",
            "pbrMetallicRoughness" : {
                "baseColorFactor" : [
                    1,
                    1,
                    1,
                    1
                ],
                "metallicFactor" : 0,
                "roughnessFactor" : 0.4343145787715912
            }
        }
    ],
    "meshes" : [
        {
            "name" : "Mesh.004",
            "primitives" : [
                {
                    "attributes" : {
                        "POSITION" : 0,
                        "NORMAL" : 1,
                        "TEXCOORD_0" : 2
                    },
                    "indices" : 3,
                    "material" : 0
                }
            ]
        }
    ],
    "accessors" : [
        {
            "bufferView" : 0,
            "componentType" : 5126,
            "count" : 4137,
            "max" : [
                55.379981994628906,
                15.269183158874512,
                54.48602294921875
            ],
            "min" : [
                -55.37500762939453,
                -15.269495964050293,
                -54.48230743408203
            ],
            "type" : "VEC3"
        },
        {
            "bufferView" : 1,
            "componentType" : 5126,
            "count" : 4137,
            "type" : "VEC3"
        },
        {
            "bufferView" : 2,
            "componentType" : 5126,
            "count" : 4137,
            "type" : "VEC2"
        },
        {
            "bufferView" : 3,
            "componentType" : 5123,
            "count" : 22500,
            "type" : "SCALAR"
        }
    ],
    "bufferViews" : [
        {
            "buffer" : 0,
            "byteLength" : 49644,
            "byteOffset" : 0
        },
        {
            "buffer" : 0,
            "byteLength" : 49644,
            "byteOffset" : 49644
        },
        {
            "buffer" : 0,
            "byteLength" : 33096,
            "byteOffset" : 99288
        },
        {
            "buffer" : 0,
            "byteLength" : 45000,
            "byteOffset" : 132384
        }
    ],
    "buffers" : [
        {
            "byteLength" : 177384,
            "uri" : "data:application/octet-stream;base64,"
        }
    ]
}
