{
    "asset" : {
        "generator" : "Khronos glTF Blender I/O v1.2.75",
        "version" : "2.0"
    },
    "scene" : 0,
    "scenes" : [
        {
            "name" : "Scene",
            "nodes" : [
                1
            ]
        }
    ],
    "nodes" : [
        {
            "mesh" : 0,
            "name" : "t_2",
            "translation" : [
                5.04158353805542,
                -3.361055612564087,
                -6.722111225128174
            ]
        },
        {
            "children" : [
                0
            ],
            "name" : "t",
            "rotation" : [
                0.7071067690849304,
                0,
                0,
                0.7071067690849304
            ],
            "scale" : [
                0.009999999776482582,
                0.009999999776482582,
                0.009999999776482582
            ]
        }
    ],
    "materials" : [
        {
            "doubleSided" : true,
            "emissiveFactor" : [
                0,
                0,
                0
            ],
            "name" : "Mat.005",
            "pbrMetallicRoughness" : {
                "baseColorFactor" : [
                    1,
                    1,
                    1,
                    1
                ],
                "metallicFactor" : 0,
                "roughnessFactor" : 0.4343145787715912
            }
        }
    ],
    "meshes" : [
        {
            "name" : "Mesh.005",
            "primitives" : [
                {
                    "attributes" : {
                        "POSITION" : 0,
                        "NORMAL" : 1,
                        "TEXCOORD_0" : 2
                    },
                    "indices" : 3,
                    "material" : 0
                }
            ]
        }
    ],
    "accessors" : [
        {
            "bufferView" : 0,
            "componentType" : 5126,
            "count" : 2894,
            "max" : [
                31.99571418762207,
                15.269503593444824,
                68.9831771850586
            ],
            "min" : [
                -31.9974422454834,
                -15.268771171569824,
                -68.9852523803711
            ],
            "type" : "VEC3"
        },
        {
            "bufferView" : 1,
            "componentType" : 5126,
            "count" : 2894,
            "type" : "VEC3"
        },
        {
            "bufferView" : 2,
            "componentType" : 5126,
            "count" : 2894,
            "type" : "VEC2"
        },
        {
            "bufferView" : 3,
            "componentType" : 5123,
            "count" : 13500,
            "type" : "SCALAR"
        }
    ],
    "bufferViews" : [
        {
            "buffer" : 0,
            "byteLength" : 34728,
            "byteOffset" : 0
        },
        {
            "buffer" : 0,
            "byteLength" : 34728,
            "byteOffset" : 34728
        },
        {
            "buffer" : 0,
            "byteLength" : 23152,
            "byteOffset" : 69456
        },
        {
            "buffer" : 0,
            "byteLength" : 27000,
            "byteOffset" : 92608
        }
    ],
    "buffers" : [
        {
            "byteLength" : 119608,
            "uri" : "data:application/octet-stream;base64,"
        }
    ]
}
